<?xml version="1.0" standalone="no"?>
<!DOCTYPE svg PUBLIC "-//W3C//DTD SVG 20010904//EN"
 "http://www.w3.org/TR/2001/REC-SVG-20010904/DTD/svg10.dtd">
<svg version="1.0" xmlns="http://www.w3.org/2000/svg"
 width="700.000000pt" height="700.000000pt" viewBox="0 0 700.000000 700.000000"
 preserveAspectRatio="xMidYMid meet">
<metadata>
Created by potrace 1.14, written by Peter Selinger 2001-2017
</metadata>
<g transform="translate(0.000000,700.000000) scale(0.100000,-0.100000)"
fill="#000000" stroke="none">
<path d="M3370 6831 c-159 -51 -289 -207 -304 -364 -3 -28 -91 -305 -246 -777
-26 -80 -68 -208 -93 -285 -25 -77 -93 -288 -152 -468 l-106 -328 -1062 1
c-695 0 -1074 -3 -1097 -10 -144 -42 -266 -173 -300 -323 -13 -60 -6 -180 15
-237 39 -110 114 -192 231 -254 39 -20 80 -45 90 -54 16 -15 69 -54 214 -157
16 -11 90 -65 165 -120 75 -55 149 -109 165 -120 16 -11 165 -119 330 -240
166 -121 312 -227 324 -235 33 -22 130 -94 136 -100 3 -3 30 -22 60 -43 105
-72 101 -42 35 -244 -32 -98 -72 -223 -90 -278 -18 -55 -62 -190 -98 -300
-107 -330 -286 -882 -330 -1015 -22 -69 -41 -138 -43 -155 -1 -16 -5 -41 -8
-55 -4 -14 -7 -56 -7 -95 -2 -160 90 -302 240 -374 68 -32 82 -35 160 -34 144
0 178 19 603 327 128 93 265 193 303 221 39 29 138 101 220 160 83 60 152 112
155 115 3 4 12 10 20 13 8 4 51 34 95 67 79 59 198 146 404 294 l103 75 77
-57 c111 -82 126 -92 356 -259 115 -84 215 -156 220 -160 21 -16 82 -61 135
-98 30 -21 59 -42 65 -47 5 -5 60 -44 120 -88 61 -44 119 -86 130 -94 81 -60
137 -100 221 -161 53 -38 149 -108 213 -155 65 -47 122 -86 128 -87 6 -1 28
-14 48 -27 79 -54 224 -72 321 -39 178 60 289 221 279 406 -6 105 -8 115 -108
417 -51 153 -259 797 -277 855 -12 39 -25 79 -30 90 -5 11 -45 135 -90 275
-45 140 -96 297 -113 348 -16 50 -28 94 -26 95 20 16 587 427 609 442 16 11
245 177 508 368 487 354 611 454 656 532 75 128 72 296 -9 420 -65 101 -136
148 -270 182 -16 4 -503 9 -1081 10 l-1052 4 -10 27 c-6 15 -56 169 -112 342
-56 173 -110 340 -120 370 -25 77 -140 430 -254 780 -52 162 -98 313 -102 335
-35 227 -216 386 -436 384 -41 0 -97 -8 -128 -18z"/>
</g>
</svg>
